# xmcd
#
# Track frame offsets:
#	150
#	23913
#	44459
#	63202
#	85440
#	106085
#	129072
#	152270
#	169958
#	185412
#	206409
#	223438
#	241511
#	260409
#	281139
#	308968
#
# Disc length: 4132 seconds
#
# Revision: 2
# Processed by: cddbd v1.5.1PL2 Copyright (c) Steve Scherf et al.
# Submitted via: audiograbber 1.83.01
#
DISCID=d9102210
DTITLE=Sound Choice - SC8903
DYEAR=2004
DGENRE=Karaoke
TTITLE0=Kenny Chesney and Uncle Kracker - When The Sun Goes Down
TTITLE1=Kenny Chesney - There Goes My Life
TTITLE2=Toby Keith - I Love This Bar
TTITLE3=Rascal Flats - Mayberry
TTITLE4=Alan Jackson - Remember When
TTITLE5=Keith Urban - You'll Think Of Me
TTITLE6=Tim Mcgraw - Live Like You Were Dying
TTITLE7=Brooks and Dunn - You Can't Take The Honky Tonk Out Of The Girl
TTITLE8=Montgomery Gentry - If You Ever Stop Loving Me
TTITLE9=John Michael Montgomery - Letters From Home
TTITLE10=George Strait - Cowboys Like Us
TTITLE11=Keith Urban - Days Go By
TTITLE12=Josh Turner - Long Black Train
TTITLE13=Toby Keith - American Soldier
TTITLE14=Big and Rich - Save A Horse (Ride A Cowboy)
TTITLE15=Data Track - Data Track
EXTD=
EXTT0=
EXTT1=
EXTT2=
EXTT3=
EXTT4=
EXTT5=
EXTT6=
EXTT7=
EXTT8=
EXTT9=
EXTT10=
EXTT11=
EXTT12=
EXTT13=
EXTT14=
EXTT15=
PLAYORDER=
